<?xml version="1.0" encoding="UTF-8"?><svg id="Layer_1" xmlns="http://www.w3.org/2000/svg" viewBox="0 0 274.29 30.25"><defs><style>.cls-1{fill:#fff;}</style></defs><path class="cls-1" d="m0,.99C0,.43.43,0,.99,0h20.05c.56,0,.99.43.99.99v2.33c0,.56.43.99.99.99h2.42c.56,0,.99.43.99.99v19.62c0,.56-.43.99-.99.99h-2.42c-.56,0-.99.43-.99.99v2.33c0,.56-.43.99-.99.99H.99c-.56,0-.99-.43-.99-.99V.99Zm21.04,24.93c.56,0,.99-.43.99-.99V5.32c0-.56-.43-.99-.99-.99H4.41v21.61h16.64Z"/><path class="cls-1" d="m33.45,5.32c0-.56.43-.99.99-.99h2.42c.56,0,.99-.43.99-.99V.99c0-.56.43-.99.99-.99h15.64c.56,0,.99.43.99.99v2.33c0,.56.43.99.99.99h2.42c.56,0,.99.43.99.99v7.65h-4.41v-7.65c0-.56-.43-.99-.99-.99h-15.64c-.56,0-.99.43-.99.99v7.65h-4.41v-7.65Zm5.4,7.65h15.64c.56,0,.99.43.99.99v2.33c0,.56.43.99.99.99h2.42c.56,0,.99.43.99.99v11.97h-4.41v-11.97c0-.56-.43-.99-.99-.99h-15.64c-.56,0-.99.43-.99.99v11.97h-4.41v-11.97c0-.56.43-.99.99-.99h2.42c.56,0,.99-.43.99-.99v-2.33c0-.56.43-.99.99-.99Z"/><path class="cls-1" d="m93.34,5.32v6.65c0,.56-.43.99-.99.99h-2.42c-.56,0-.99.43-.99.99v2.33c0,.56-.43.99-.99.99h-2.42c-.56,0-.99-.43-.99-.99v-2.33c0-.56.43-.99.99-.99h2.42c.56,0,.99-.43.99-.99v-6.65c0-.56-.43-.99-.99-.99h-15.64c-.56,0-.99.43-.99.99v24.93h-4.41V5.32c0-.56.43-.99.99-.99h2.42c.56,0,.99-.43.99-.99V.99c0-.56.43-.99.99-.99h15.64c.56,0,.99.43.99.99v2.33c0,.56.43.99.99.99h2.42c.56,0,.99.43.99.99Zm-17.63,8.64c0-.56.43-.99.99-.99h2.42c.56,0,.99.43.99.99v2.33c0,.56.43.99.99.99h2.42c.56,0,.99.43.99.99v2.33c0,.56.43.99.99.99h2.42c.56,0,.99.43.99.99v2.33c0,.56.43.99.99.99h2.42c.56,0,.99.43.99.99v2.33c0,.56-.43.99-.99.99h-2.42c-.56,0-.99-.43-.99-.99v-2.33c0-.56-.43-.99-.99-.99h-2.42c-.56,0-.99-.43-.99-.99v-2.33c0-.56-.43-.99-.99-.99h-2.42c-.56,0-.99-.43-.99-.99v-2.33c0-.56-.43-.99-.99-.99h-2.42c-.56,0-.99-.43-.99-.99v-2.33Z"/><path class="cls-1" d="m100.35,11.97V0h4.41v11.97c0,.56.43.99.99.99h6.83c.56,0,.99-.43.99-.99v-2.33c0-.56.43-.99.99-.99h2.42c.56,0,.99-.43.99-.99v-2.33c0-.56.43-.99.99-.99h2.42c.56,0,.99-.43.99-.99V.99c0-.56.43-.99.99-.99h2.42c.56,0,.99.43.99.99v2.33c0,.56-.43.99-.99.99h-2.38c-.56,0-1.04.43-1.04.99v2.33c0,.56-.43.99-.99.99h-2.38c-.56,0-1.04.43-1.04.99v2.33c0,.56-.43.99-.99.99h-2.42c-.56,0-.99.43-.99.99v2.33c0,.56.43.99.99.99h2.42c.56,0,.99.43.99.99v2.33c0,.56.48.99,1.04.99h2.38c.56,0,.99.43.99.99v2.33c0,.56.48.99,1.04.99h2.38c.56,0,.99.43.99.99v2.33c0,.56-.43.99-.99.99h-2.42c-.56,0-.99-.43-.99-.99v-2.33c0-.56-.43-.99-.99-.99h-2.42c-.56,0-.99-.43-.99-.99v-2.33c0-.56-.43-.99-.99-.99h-2.42c-.56,0-.99-.43-.99-.99v-2.33c0-.56-.43-.99-.99-.99h-6.83c-.56,0-.99.43-.99.99v11.97h-4.41v-11.97c0-.56.43-.99.99-.99h2.42c.56,0,.99-.43.99-.99v-2.33c0-.56-.43-.99-.99-.99h-2.42c-.56,0-.99-.43-.99-.99Z"/><path class="cls-1" d="m147.49,25.93h10.03c.56,0,.99-.43.99-.99V5.32c0-.56-.43-.99-.99-.99h-10.03V0h10.03c.56,0,.99.43.99.99v2.33c0,.56.43.99.99.99h2.42c.56,0,.99-.43.99-.99V.99c0-.56.43-.99.99-.99h10.03v4.32h-10.03c-.56,0-.99.43-.99.99v19.62c0,.56.43.99.99.99h10.03v4.32h-10.03c-.56,0-.99-.43-.99-.99v-2.33c0-.56-.43-.99-.99-.99h-2.42c-.56,0-.99.43-.99.99v2.33c0,.56-.43.99-.99.99h-10.03v-4.32Z"/><path class="cls-1" d="m207.39,5.32v6.65c0,.56-.43.99-.99.99h-2.42c-.56,0-.99.43-.99.99v2.33c0,.56-.43.99-.99.99h-2.42c-.56,0-.99-.43-.99-.99v-2.33c0-.56.43-.99.99-.99h2.42c.56,0,.99-.43.99-.99v-6.65c0-.56-.43-.99-.99-.99h-15.64c-.56,0-.99.43-.99.99v24.93h-4.41V5.32c0-.56.43-.99.99-.99h2.42c.56,0,.99-.43.99-.99V.99c0-.56.43-.99.99-.99h15.64c.56,0,.99.43.99.99v2.33c0,.56.43.99.99.99h2.42c.56,0,.99.43.99.99Zm-17.63,8.64c0-.56.43-.99.99-.99h2.42c.56,0,.99.43.99.99v2.33c0,.56.43.99.99.99h2.42c.56,0,.99.43.99.99v2.33c0,.56.43.99.99.99h2.42c.56,0,.99.43.99.99v2.33c0,.56.43.99.99.99h2.42c.56,0,.99.43.99.99v2.33c0,.56-.43.99-.99.99h-2.42c-.56,0-.99-.43-.99-.99v-2.33c0-.56-.43-.99-.99-.99h-2.42c-.56,0-.99-.43-.99-.99v-2.33c0-.56-.43-.99-.99-.99h-2.42c-.56,0-.99-.43-.99-.99v-2.33c0-.56-.43-.99-.99-.99h-2.42c-.56,0-.99-.43-.99-.99v-2.33Z"/><path class="cls-1" d="m218.8,29.25v-2.33c0-.56-.43-.99-.99-.99h-2.42c-.56,0-.99-.43-.99-.99V5.32c0-.56.43-.99.99-.99h2.42c.56,0,.99-.43.99-.99V.99c0-.56.43-.99.99-.99h15.64c.56,0,.99.43.99.99v2.33c0,.56.43.99.99.99h2.42c.56,0,.99.43.99.99v19.62c0,.56-.43.99-.99.99h-2.42c-.56,0-.99.43-.99.99v2.33c0,.56-.43.99-.99.99h-15.64c-.56,0-.99-.43-.99-.99Zm.99-3.33h15.64c.56,0,.99-.43.99-.99V5.32c0-.56-.43-.99-.99-.99h-15.64c-.56,0-.99.43-.99.99v19.62c0,.56.43.99.99.99Z"/><path class="cls-1" d="m247.84,3.33V.99c0-.56.43-.99.99-.99h2.42c.56,0,.99.43.99.99v2.33c0,.56.43.99.99.99h2.42c.56,0,.99.43.99.99v2.33c0,.56.43.99.99.99h2.42c.56,0,.99.43.99.99v2.33c0,.56.43.99.99.99h2.42c.56,0,.99.43.99.99v2.33c0,.56.43.99.99.99h2.42c.56,0,.99.43.99.99v2.33c0,.56.43.99.99.99h2.42c.56,0,.99.43.99.99v7.65h-4.41v-7.65c0-.56-.43-.99-.99-.99h-2.42c-.56,0-.99-.43-.99-.99v-2.33c0-.56-.43-.99-.99-.99h-2.42c-.56,0-.99-.43-.99-.99v-2.33c0-.56-.43-.99-.99-.99h-2.42c-.56,0-.99-.43-.99-.99v-2.33c0-.56-.43-.99-.99-.99h-2.42c-.56,0-.99-.43-.99-.99v-2.33c0-.56-.43-.99-.99-.99h-2.42c-.56,0-.99-.43-.99-.99Zm0,5.32h4.41v21.61h-4.41V8.64Zm22.04-8.64h4.41v17.29h-4.41V0Z"/></svg>