<?xml version="1.0" encoding="UTF-8"?><svg id="Layer_1" xmlns="http://www.w3.org/2000/svg" viewBox="0 0 217.55 119.48"><defs><style>.cls-1{fill:#fff;}</style></defs><path class="cls-1" d="m13.52,3.42c3.87,25.85,4.66,31.38,0,27.83,3.87,5.92,4.66,1.97-1.21-18.15,5.87,21.7,5.87,26.44,2.42,24.2,5.03,7.77,5.82,6.98,1.21-1.21,3.03,5.03,4.61,1.87-2.42-13.31,6.24,17.55,6.24,21.5,3.63,20.57,4.19,3.3,2.61.93-1.21-10.89,5.4,12.61,5.4,16.56,4.84,14.52,2.93,2.04,2.93.46-1.21-9.68,4.93,9.35,3.35,12.51,3.63,9.68,2.88,1.25,2.88-2.7,1.21-15.73,1.67,12.24,1.67,14.61,0,10.89,1.67,1.35.88-2.6,1.21-20.57,2.04,16.39-.33,19.55-1.21,14.52,1.67,2.66,3.25-2.87,4.84-24.2-1.59,19.75-1.59,24.49-4.84,16.94.88,4.39,3.25-1.14,6.05-26.62-2.8,25.48-5.17,31.01-7.26,26.62,2.09,6.76,2.88,3.6,2.42-16.94-.33,22.12-.33,26.86-2.42,24.2,1.3,5.03,3.67,1.87,1.21-14.52,1.67,17.97.09,21.92,0,20.57,2.46,3.72,3.25,1.35,1.21-10.89,1.25,13.82,1.25,16.98,0,16.94,1.25,2.41-.33.83-1.21-7.26.88,9.67,2.46,12.04,2.42,13.31.83,1.1.83-.48,0-4.84,1.62,5.94,1.62,8.31,1.21,10.89q.41-1,0-2.42c1.2,2.21.41,5.37,4.84,8.47-1.27-2.31-2.06-1.52-1.21,1.21-.06-1.15,2.31-.36,7.26,4.84-4.16-4.41-4.16-5.2-2.42-1.21-2.53-3.99-3.32-3.2-1.21,1.21-2.11-2.83-.53-1.25,3.63,7.26-3.37-7.72-4.16-7.72-1.21-2.42-1.37-4.51-.58-2.14,7.26,8.47-6.26-9.82-7.84-11.4-4.84-4.84-3.79-4.19-1.42-1.82,3.63,13.31-5.84-13.55-5.84-15.92-2.42-8.47-3.42-5.87-2.63-2.71,3.63,15.73-4.68-16.86-7.05-19.23-2.42-10.89-4.63-6.76-4.63-2.81,0,18.15-4.63-20.17-3.05-22.54,1.21-13.31-1.89-8.44-4.26-3.7,2.42,20.57-6.68-24.27-4.31-29.01-2.42-20.57-5.84-9.23-5.84-6.86-1.21,13.31-3.84-20.96-6.21-24.91,1.21-18.15-5.05-8.34-2.68-6.76,2.42,9.68-6.68-17.23-7.47-20.39-4.84-14.52-4.21-9.03-5-8.24-1.21,1.21-2.21-8.66-3.79-6.29,2.42,7.26-4.63-14.34-6.21-15.92-3.63-9.68-3.37-9.4-4.95-9.4-2.42-1.21-2.53-6.61-2.53-5.03,0,7.26-1.74-12.29-3.32-13.08-1.21-6.05-4.48-6.24-2.11-3.08-1.21,12.1-2.48-14.39-.11-15.97-1.21-7.26-2.85-7.13-3.64-3.97-4.84,14.52,1.2-17.7,1.99-20.07,2.42-10.89-.43-7.6-2.01-3.65-6.05,16.94,3.25-19.8,5.62-22.17,4.84-12.1-1.59-8.49-5.54-5.33-10.89,19.36,5.35-24.69,10.09-27.85,9.68-19.36.41-11.65-.38-10.86-1.21,6.05.04-14.54-1.54-12.96-3.63,6.05,4.46-20.59,6.04-24.54,6.05-16.94,0-9.18-2.38-6.81-3.63,10.89,2.04-18.49,3.62-22.44,4.84-15.73-1.22-8.29-1.22-5.92-2.42,8.47,1.99-15.97,1.2-19.13,3.63-13.31-.85-6.61-.85-5.82,0,6.05-.85-12.66-.85-15.03,0-10.89-.85-5.72-.85-4.93,0,3.63-1.64-9.35-1.64-11.72-3.63-8.47.41-4.04-.38-4.04-1.21,2.42.83-7.25,1.62-8.83-1.21-7.26.46-3.15-.33-3.15-3.63,0,4.88-3.94,4.09-7.1,0-8.47,2.51-.21,3.3.58,1.21,1.21,2.09-3,.51-4.58-4.84-9.68,4.56,3.52,5.35,3.52,2.42,3.63,2.14-1.69.56-4.06-4.84-13.31,3.82,8.46,6.19,9.25,2.42,7.26,2.19.41,1.4-2.75-4.84-15.73,7.03,10.61,5.45,13.77,2.42,9.68,3.82.93,2.24-3.02-2.42-20.57,4.66,15.97,7.03,19.13,1.21,14.52,4.24,2.24,4.24-2.5-1.21-24.2,5.45,20.12,5.45,24.07,0,18.15,5.45,3.55,3.87-1.98,0-27.83q5.45,19.53,0,0Zm-5.05,100.64c17.08-17.33,20.24-21.28,20.57-13.31,2.04-8.76-1.12-7.18-10.89,9.68,12.14-16.86,15.3-20.81,14.52-15.73,1.57-6.66-.01-4.29-8.47,8.47,8.46-15.13,11.62-17.5,12.1-13.31,1.1-5.77.31-4.19-4.84,7.26,5.15-10.66,5.94-12.24,4.84-7.26,2.68-8.14,3.47-8.93,3.63-3.63-.16-5.3-.95-4.51-2.42,3.63,2.26-8.14,3.05-8.93,3.63-4.84.21-5.67,1-5.67,2.42,0-.63-3.3-.63-1.72-1.21,9.68-.21-10.61.58-11.4,2.42-6.05-1.05-3.77-1.84-.61-2.42,14.52.58-14.34,1.37-15.92,2.42-9.68-1.05-4.66-2.63-.71-6.05,18.15,3.42-18.86,5-22.81,6.05-18.15-1.05-6.24-1.84-4.66-2.42,9.68,2.16-15.13,1.37-19.08,6.05-14.52-2.31-5.35-.73-3.77,1.21,7.26-2.73-11.82-2.73-14.98,0-12.1-2.73-4.46-2.73-3.67,1.21,3.63-2.36-8.09-3.94-10.46,1.21-6.05-1.99-5.2-1.2-2.83,4.84,4.84-6.04-6.88-6.83-7.67-2.42-4.84-3.62-1.25-2.83,1.12,3.63,13.31-6.46-10.61-6.46-12.98-1.21-8.47-4.46-2.93-2.88.23,4.84,15.73-7.72-14.71-9.3-17.87-3.63-15.73-4.88-5.3-3.3-3.72,3.63,6.05-9.3-9.77-7.72-13.72-6.05-10.89-4.04-3.62-3.25-2.83,3.63,3.63-6.09-8.04-9.25-9.62-6.05-9.68-2.41-2.31-2.41-1.52,2.42,2.42-4.83-3.94-5.62-3.94-1.21-2.42-2.04-2.31-.46.06,8.47,6.05-8.14-5.2-9.72-6.78-4.84-4.84-3.3-1.94-.93.43,9.68,7.26-10.61-7.62-12.98-8.41-8.47-8.47-4.51-2.31-3.72-1.52,4.84,2.42-10.14-3.94-12.51-5.52-9.68-6.05q-3.62-1.05,2.42,0c-6.04-1.05-7.62-1.84-3.63-3.63-3.99-.58-1.62-1.37,4.84-2.42q-6.46,1.05-2.42,0c-4.04-2.11-.88-2.11,9.68-6.05-11.35,3.15-13.72,4.73-12.1,3.63-3.99,1.89-3.2,1.1,1.21-1.21-5.2,3.1-5.99,3.89-4.84,0-3.52.73-2.73-.85,1.21-7.26-3.94,5.62-4.73,5.62-2.42,3.63-3.89,1.2-1.52-1.17,1.21-10.89-2.73,8.14-3.52,9.72-2.42,4.84-1.1,2.51-.31.14,4.84-12.1-5.15,12.24-5.15,14.61-4.84,10.89-1.89,6.88-1.1,6.88,1.21,1.21-2.31,4.09-1.52,2.51,2.42-6.05-3.94,9.35-4.73,11.72-3.63,8.47-1.89,5.62-2.68,5.62-2.42,1.21-1.84,3.62-1.84,2.83-1.21-3.63-2.21,6.46.95,8.04-1.21,3.63-.21,2.04-1.79.46-1.21-9.68.21,9.35.21,10.14,0,6.05-.58,2.51,1.79-.65,1.21-14.52.58,13.08-1.79,14.66-1.21,9.68-1.37,4.19-.58,1.03,0-14.52-1.37,15.55-.58,18.71-1.21,14.52,3,5.77.63,3.4,1.21-8.47.21,13.45.21,15.82-1.21,13.31.63,4.88.63,3.3,0-4.84,1.42,9.72.63,11.3-1.21,8.47-.53,5.2-.53,2.04-4.84-4.84,3.52,6.88,3.52,8.46,1.21,4.84-.06,2.83-.06-.33-6.05-10.89,4.41,9.77,5.99,11.35,2.42,8.47,1.2,2.88.41-.28-7.26-13.31,6.88,12.24,7.67,13.82,3.63,9.68,4.04,2.56,2.46-.6-4.84-16.94,7.3,16.34,8.88,19.5,4.84,16.94,4.04,4.93,3.25,2.56-4.84-8.47,8.09,12.61,10.46,15.77,7.26,14.52,2.41,3.62,1.62,2.04-4.84-6.05,6.46,8.88,9.62,10.46,4.84,9.68,3.2,3.94.83,2.36-6.05-3.63,6.88,5.99,9.25,6.78,3.63,3.63,1.67,4.73.09.78-12.1-6.05,9.82,7.62,12.19,7.62,7.26,6.05,3.35.78.98-2.38-13.31-12.1,13.5,8.93,14.29,11.3,8.47,8.47,5.03,1.25,1.08-1.12-13.31-15.73,14.39,12.24,15.97,15.4,8.47,12.1,6.71.93,2.76-2.23-13.31-20.57,16.86,17.55,19.23,22.29,13.31,19.36,7.5,3.72,5.92.56-8.47-13.31,13.6,15.45,18.34,17.82,13.31,16.94,5.82,3.25,4.24.88-8.47-9.68,13.5,11.35,15.87,14.51,12.1,13.31,7.72,4.36,6.93,4.36-1.21,1.21,5.77,1.57,4.19-.01-7.26-6.05,12.24,6.83,14.61,9.99,12.1,6.05,4.88.78,3.3-.8-6.05-8.47,9.35,7.67,10.14,8.46,6.05,6.05,1.72,3.99.14-1.54-12.1-12.1,11.45,9.77,12.24,13.72,7.26,8.47,4.98,1.3,2.61-1.86-9.68-16.94,10.71,14.29,13.87,15.87,6.05,12.1,6.24,2.98,3.08-.18-9.68-19.36,11.97,17.6,15.92,19.97,7.26,15.73,6.29,3.45,4.71-2.87-9.68-25.41,13.6,21.75,15.18,26.49,7.26,20.57,7.13,4.34,5.55-2.77-8.47-29.04,14.81,26.27,14.81,32.59,8.47,27.83,7.92,6.34,6.34,2.39-7.26-18.15,14.39,20.54,14.39,25.28,6.05,18.15,12.29,11.87,11.5,13.45,3.63,6.05,6.29,5.82,5.5,1.87-8.47-14.52,13.97,17.97,17.13,21.92,12.1,19.36,6.61,3.35,5.82.98-6.05-13.31,11.08,15.87,15.82,18.24,9.68,18.15,6.14,2.46,3.77,1.67-6.05-8.47,10.61,10.93,12.98,13.3,10.89,9.68,5.25,4.41,6.04,3.62,1.21-1.21,3.25,3.25,3.25.88-4.84-8.47,7.3,9.35,8.09,11.72,4.84,7.26,5.62,5.25,6.41,5.25,2.42,0,4.78,2.09,3.2-.28-2.42-13.31,6.41,11.45,4.83,13.82,2.42,8.47,3.2,2.98.83-.18-3.63-16.94,5.25,15.97,6.04,18.34,2.42,12.1,3.62,3.87,2.04-.87-2.42-21.78,4.46,19.33,6.04,23.28,1.21,15.73,3.25,5.18,2.46-.35-1.21-25.41,3.67,25.06,4.46,30.59,1.21,25.41,4.83,6.76,4.83,3.6,0-16.94,4.83,21.33,4.83,26.86,1.21,22.99,2.04,6.24,3.62,3.08-3.63-12.1,7.25,15.97,6.46,20.71,6.05,15.73,3.57,4.98,1.99,3.4-1.21-9.68,5.57,13.87,4.78,17.03,4.84,13.31,2.31,4.51.73,2.93-1.21-7.26,2.73,10.19,3.52,11.77,2.42,7.26,1.89,6.09,3.47,6.09,2.42,0,1.05,3.72,1.05.56,1.21-12.1.63,11.87,1.42,14.24-1.21,8.47,1.05,3.4.26.24,1.21-16.94,1.42,15.6-.95,17.97-1.21,10.89,2.63,5.5,2.63.76,6.05-19.36-1.05,19.33-3.42,22.49-3.63,14.52-.58,5.6,2.58,1.65,7.26-21.78-4.68,22.64-6.26,26.59-7.26,19.36.21,11.97.21,14.34,0,2.42,1.79,7.97,3.37,4.81,6.05-14.52-4.26,20.12-4.26,24.86-6.05,19.36,1,7.08,1,4.71,2.42-10.89-1.42,17.18-3,20.34-2.42,16.94.21,5.77.21,4.19,1.21-7.26.58,12.24-1.79,16.98,2.42,9.68-.26,6.51.53,4.93,3.63-4.84-3.1,9.77-3.1,10.56-1.21,6.05,1.27,3.72,1.27-.23,9.68-12.1-6.83,11.87-6.83,14.24-6.05,7.26-1.57,3.82.8.66,10.89-14.52-8.51,13.6-9.3,14.39-4.84,6.05-5.25,10.71-6.83,11.5-2.42,1.21q-4.41,11.08,0,2.42c-1.25,6.29,1.12,1.55,15.73-14.52-13.82,16.86-16.98,20.02-14.52,14.52-2.46,7.87-.88,5.5,9.68-8.47-12.14,13.97-13.72,17.92-12.1,13.31-.83,7.77-1.62,3.82,7.26-7.26-8.88,12.66-10.46,15.82-9.68,12.1-.78,6.09-3.15,2.93,3.63-4.84-5.2,10.14-6.78,11.72-3.63,9.68-3.15,4.41-2.36,5.2,1.21,1.21-1.99,3.99-1.99,3.2,3.63-2.42-5.62,5.62-5.62,7.2-2.42,4.84-.83,3.94,1.54,2.36,13.31-2.42-10.19,3.99-10.98,4.78-6.05,2.42-3.35.78-.19,2.36,14.52-3.63-13.92,3.62-15.5,5.2-8.47,2.42-4.66,3.57-1.5,3.57,16.94,0-18.44,4.36-21.6,2.78-16.94,1.21-7.03,1.57-4.66,3.15,8.47-2.42-13.92,4.78-18.66,4.78-12.1,6.05-5.77,1.89-4.19,1.89,7.26,1.21-12.24,2.26-16.19-.11-10.89,2.42-5.3.63-3.72,1.42,4.84,1.21-8.56,1-12.51-.58-4.84,2.42-5.3.95-2.93,2.53,7.26,7.26-9.4-3.94-10.19-4.73-4.84-3.63-6.14,2.06-1.4,2.06,10.89,10.89-12.29-6.46-13.08-9.62-7.26-6.05-7.4-3.57-6.61-3.57,2.42,0-6.66-.41-2.71,1.17,12.1,12.1-14.81-9.35-17.18-11.72-8.47-8.47-7.13-.88-3.97,3.07,12.1,19.36-16.07-16.29-19.23-21.03-13.31-19.36-9.08-4.83-8.29-4.83,2.42,0-9.92-2.46-6.76-2.46,6.05,7.26-15.18-10.51-17.55-13.67-13.31-12.1-6.61-1.57-5.03.01,7.26,6.05-12.29-7.62-16.24-9.99-12.1-4.84-7.3-3.57-5.72-1.2,3.63,4.84-8.56-6.04-10.93-8.41-6.05-3.63-7.25-1.62-3.3.75,3.63,10.89-7.72-9.35-7.72-10.93-3.63-6.05-4.88-2.51-3.3.65,4.84,15.73-8.14-13.5-8.14-15.87-3.63-9.68-2.93-3.82-4.51.92,4.84,19.36-8.56-17.65-8.56-20.81-2.42-14.52-6.14-4.71-6.14.03,1.21,21.78-7.35-21.75-7.35-26.49-2.42-20.57-6.51-6.71-4.93-3.55,1.21,14.52-6.93-18.86-6.93-23.6-2.42-19.36-4.51-6.61-4.51-4.24,3.63,9.68-8.14-14.71-8.14-19.45-4.84-13.31-8.04-8.51-4.88-5.35-1.21,3.63-5.25-7.4-4.46-6.61,1.21,3.63-6.46-11.82-6.46-14.98-4.84-10.89-3.99-3.3-3.99-1.72,1.21,9.68-4.41-10.61-5.2-12.19-2.42-7.26-3.57-3.35-2.78-.19-1.21,14.52-3.15-13.92-3.15-15.5,0-9.68-3.15-4.24-3.94-.29-2.42,18.15-2.31-16.86-.73-20.02,1.21-12.1-3.52-5.55-4.31-.81-6.05,20.57.95-20.59,2.53-23.75,4.84-15.73-3.89-7.23-4.68-1.7-8.47,21.78,3.79-23.48,4.58-29.01,8.47-21.78-2.31-8.02-3.89-4.86-3.63,15.73.53-21.38,2.11-26.12,4.84-20.57-5.1-7.92-2.73-4.76-2.42,12.1-.31-18.44-1.1-22.39,1.21-18.15-3.89-6.61-3.89-4.24-2.42,9.68-2.26-13.92.9-17.87-1.21-12.1-1.05-4.98-2.63-3.4-2.42,8.47-1-11.87.58-13.45,1.21-7.26-4.58-6.19-3.79-1.45-9.68,13.31,4.31-13.97,4.31-17.13,6.05-9.68-.95-5.08-4.11-1.13-10.89,16.94,6.78-16.49,7.57-20.44,7.26-12.1-2.06-7.55-4.43-2.81-16.94,15.73,11.72-17.75,12.51-21.7,13.31-10.89-.8-8.44-3.96-3.7-18.15,18.15,12.61-21.85,16.56-23.43,14.52-13.31,1.25-9.33-3.49-7.75-18.15,14.52,9.92-18.32,8.34-18.32-6.05,2.42,14.39-20.74,15.97-20.74,6.05-2.42,14.66-22.27,19.4-23.85,18.15-14.52,1.25-10.91-1.91-6.96-15.73,13.31,15.4-21.06,19.35-25.01,19.36-16.94,3.94-13.6,3.15-13.6-1.21-1.21,1.2-10.02-1.17-6.86-12.1,12.1,10.93-20.54,15.67-22.91,15.73-15.73,1.52-7.97-.85-6.39-7.26,10.89,7.99-17.28,9.57-20.44,9.68-13.31,1.47-11.08,2.26-12.66-1.21-2.42.31-7.87-1.27-6.29-6.05,8.47,6.36-15.55,8.73-17.92,8.47-14.52,1.05-4.98-.53-3.4-3.63,8.47,3.1-12.66,4.68-14.24,3.63-9.68-.53-4.56-2.11-1.4-8.47,10.89,4.78-12.29,6.36-13.87,4.84-8.47,2.31-6.98,2.31-6.19,0,2.42-.85-6.24-2.43-3.08-12.1,10.89,8.88-13.18,10.46-15.55,8.47-8.47,1.2-5.5-2.75-3.13-15.73,13.31,12.98-14.86,14.56-18.81,13.31-9.68.46-6.76-3.49-2.81-20.57,14.52q11.55-15.75,0,0Z"/><path class="cls-1" d="m67.99,3.32c6.51,25.27,5.72,30.8,1.21,25.41,3.72,7.76,5.3,3.81-3.63-15.73,8.14,21.12,8.14,25.86,4.84,20.57,6.46,6.08,4.09,3.71-1.21-13.31,6.09,17.81,6.88,21.76,4.84,16.94,4.41,5.61,2.83,4.03-2.42-9.68,6.04,14.5,6.04,17.66,4.84,13.31,3.57,5.14,3.57,3.56-1.21-7.26,3.99,10.82,4.78,11.61,2.42,6.05,3.15,7.93,4.73,7.93,2.42,1.21,2.31,3.56,3.89.4,1.21-14.52,1.1,14.13,2.68,16.5-1.21,9.68,2.31,4.45,2.31.5,0-18.15,2.31,17.07,2.31,20.23,0,12.1,1.52,5.76,3.89,1.81,3.63-20.57.26,20.8-.53,23.17-2.42,13.31,1.89,8.28,3.47,3.54,6.05-21.78-2.58,25.32-4.16,30.06-6.05,22.99,2.68,9.44,3.47,5.49,3.63-15.73-.16,22.8-1.74,26.75-3.63,20.57,2.68,8.55,2.68,5.39,2.42-12.1.26,19.07-.53,23.02-2.42,18.15,2.68,6.45,3.47,4.08,1.21-10.89,2.26,15.76-.11,18.92,1.21,14.52,2.63,6.77,1.05,4.4,2.42-7.26-1.37,12.45-.58,15.61,0,12.1,1.79,5.09,1,2.72,2.42-6.05-.63,9.56-3,14.3,1.21,10.89-1.05,4.2-.26,3.41,1.21-2.42-2.26,5.83-3.05,7.41,0,6.05.11,3.73.9,2.94,6.05-1.21-4.36,4.15-5.94,4.94-2.42,3.63-1.15,3.68,1.22,2.89,8.47,1.21-6.46,1.68-8.83,1.68-3.63,2.42-2.83,3.21.33.84,10.89,2.42-9.77,0-11.35,0-7.26,0-3.3,1.58-.14,3.16,12.1,7.26-11.45-3.31-13.03-3.31-7.26-3.63-4.98,1.11-1.03,2.69,13.31,9.68-13.55-6.2-16.71-6.99-9.68-6.05-5.45-.15-2.29,3.01,14.52,13.31-16.02-9.51-17.6-11.88-10.89-8.47-6.71-.25-2.76,2.91,13.31,18.15-16.07-13.66-18.44-16.03-8.47-13.31-7.6-1.93-4.44,2.02,14.52,19.36-18.17-16.55-21.33-19.71-10.89-15.73-10.44-1.61-5.7,3.13,13.31,25.41-20.59-19.91-20.59-25.44-10.89-20.57-9.7-6.45-8.91-1.71,10.89,16.94-16.64-12.33-15.85-9.17,2.42,12.1-19.06-26.01-22.22-33.12-13.31-30.25-10.49-3.66-8.12,1.08,10.89,21.78-19.8-22.28-22.96-27.81-14.52-25.41-10.02-3.19-7.65.76,9.68,18.15-17.33-17.39-18.91-21.34-9.68-16.94-13.18-8.35-13.97-8.35-3.63-3.63-8.76-3.14-7.97.02,9.68,13.31-17.65-14.87-20.02-18.82-14.52-16.94-6.29-3.46-6.29-.3,9.68,9.68-15.97-11.56-19.13-14.72-13.31-14.52-6.61-2.57-4.24-.2,8.47,6.05-13.5-7.04-15.87-9.41-12.1-7.26-5.35-.57-3.77,1.01,7.26,9.68-10.24-8.67-12.61-9.46-7.26-7.26-5.35.17-1.4,2.54,9.68,15.73-11.87-11.61-12.66-13.98-7.26-9.68-6.19-1.93-3.03,2.02,9.68,18.15-11.92-15.34-14.29-18.5-6.05-14.52-5.87-2.4-3.5,2.34,10.89,21.78-15.18-17.86-15.18-23.39-8.47-16.94-7.5-2.5-5.92,3.03,7.26,27.83-13.18-24.01-14.76-30.33-7.26-26.62-7.5-6.08-5.92-2.92,7.26,15.73-13.18-20.23-17.13-24.18-9.68-21.78-7.45-4.77-5.08-1.61,7.26,13.31-13.13-15.71-14.71-19.66-10.89-16.94-6.98-2.72-4.61-.35,6.05,12.1-10.66-14.03-14.61-16.4-8.47-16.94-5.35-2.62-3.77-1.04,7.26,7.26-11.03-9.88-14.19-11.46-10.89-10.89-5.67-1.36-3.3-.57,3.63,6.05-9.3-6.62-9.3-9.78-8.47-8.47-2.41-2.1-2.41-1.31,3.63,2.42-6.83-4.52-9.2-6.1-6.05-8.47-3.15,0-2.36,0,2.42,0-7.15.79-7.94-2.37-10.89-3.63-1,1.26-1.79-.32-3.63-3.63,1.05,2.52,1.05,3.31,0,1.21,1.05-.27.26-1.85-3.63-8.47,2.31,5.83,3.1,5.83,1.21,2.42,1.89,4.2,1.1,4.99-1.21,1.21-.06,2.2.73-.96-6.05-9.68,5.2,7.93,5.99,9.51,3.63,4.84,2.36,3.09.78.72-4.84-12.1,4.83,11.24,6.41,12.82,2.42,7.26,3.99,3.98,1.62.82-2.42-15.73,4.83,15.76,4.83,19.71,2.42,15.73.83,6.35,3.2,3.19-3.63-7.26,6.83,12.03,6.83,15.98,6.05,13.31,1.57,5.04,2.36,1.88-3.63-4.84,5.99,7.51,5.99,10.67,6.05,6.05,1.52,3.04,1.52.67-2.42-8.47,3.15,9.14,3.94,9.93,2.42,6.05-.06,3.09.73-.07-4.84-13.31,5.57,11.66,3.99,14.03,2.42,7.26,3.15,3.61,3.15.45,0-16.94,3.94,16.6,2.36,19.76,1.21,13.31,1.15,9.61,4.31,11.19-1.21,3.63,3.15,5.98,1.57,4.4-1.21-7.26,4.36,13.24,4.36,15.61,2.42,13.31,1.94,3.88,1.15,3.09-2.42-6.05,2.78,9.93,5.15,12.3,2.42,10.89,2.73,2.99,1.94,2.99-1.21-2.42,4.73,6.2,5.52,8.57,4.84,8.47,1.47,1.68.68.89-1.21-1.21,2.68,3.68,3.47,5.26,0,8.47,3.47-.84,2.68-.05,1.21,2.42,1.47-.89.68.69-2.42,4.84,3.1-3.36,3.89-4.15,3.63-2.42,2.63-.94,1.84,1.43,0,9.68,1.84-6.67,1.84-8.25,1.21-4.84,1.42-1.04-.95,1.33-2.42,12.1.68-9.98,3.05-10.77,2.42-6.05.63-3.14-1.74.02-4.84,14.52,3.1-13.71,4.68-15.29,3.63-9.68-1.32-4.82-3.69-1.66-9.68,15.73,5.99-15.81,6.78-18.18,7.26-10.89,1.89-4.92-2.06-1.76-9.68,18.15,7.62-17.54,9.2-20.7,8.47-10.89q2.31-12.97,0-2.42c1.52-5.81-3.22-1.86-13.31,20.57,7.72-20.06,10.09-21.64,7.26-7.26,5.2-17.54,5.99-19.12,3.63-8.47,5.52-12.23,1.57-12.23,0,2.42-.8-9.91-3.17-4.38-16.94,19.36,12.98-24.53,17.72-29.27,16.94-21.78,1.57-9.07-1.59-6.7-10.89,14.52,10.09-22.01,14.04-25.96,12.1-19.36,2.73-10.55,2.73-9.76-1.21,3.63,1.57-11.81,1.57-10.23-3.63,6.05,3.62-13.91,2.83-13.12-3.63,3.63,8.83-19.91,10.41-23.86,12.1-18.15-.9-8.08-.11-4.13-6.05,10.89,5.15-17.39,8.31-20.55,7.26-16.94-.53-5.98.26-2.82-4.84,9.68,5.1-12.5,3.52-14.87,3.63-9.68,1.47-7.56.68-8.35-1.21-1.21-1.27-4.77-2.85-1.61-10.89,12.1,8.04-12.92,8.04-15.29,7.26-8.47,1.57-4.45-1.59-2.08-12.1,14.52,9.72-15.02,12.09-17.39,8.47-10.89.46-6.5-2.7-2.55-18.15,14.52,13.87-16.28,16.24-18.65,13.31-9.68,2.14-7.39-2.6-4.23-20.57,15.73,16.39-19.96,21.13-20.75,16.94-12.1,3.4-7.07-2.92-4.7-24.2,15.73,20.49-20.43,25.23-22.8,21.78-12.1,2.66-9.12-3.66-4.38-29.04,15.73,25.38-20.11,31.7-24.85,29.04-15.73,3.45-10.7-1.29-8.33-21.78,12.1,21.28-20.43,27.6-23.59,24.2-15.73,4.19-9.44.24-7.86-16.94,10.89,17.97-18.75,23.5-21.91,20.57-15.73,2.93-8.55-.23-6.18-14.52,10.89,15.08-17.86,19.82-20.23,18.15-14.52,4.04-6.5.09-4.92-9.68,10.89,12.14-15.81,14.51-19.76,12.1-15.73,2.41-6.4.04-4.03-8.47,8.47,10.09-13.29,11.67-16.45,10.89-12.1,1.57-5.93.78-4.35-4.84,6.05,5.62-11.19,7.99-13.56,6.05-10.89,2.73-5.04,1.94-5.83-1.21-1.21,2.36-3.04.78-2.25-6.05,4.84,7.62-7.88,8.41-10.25,7.26-8.47,2.73-3.36,1.94-4.15-1.21-1.21,1.57-2.94,1.57-2.15-3.63,2.42,5.2-5.36,6.78-6.15,3.63-6.05,2.36-2.47,1.57-4.05-7.26-1.21,7.25-1.26,9.62-2.84,4.84-4.84,3.2-.37,1.62-1.16-6.05-3.63,7.67,3.26,10.04,1.68,4.84-1.21,4.41.52,2.04-1.06-4.84-7.26,6.88,5.41,7.67,6.2,4.84,3.63,4.41.2,2.83-2.17-4.84-12.1,6.09,9.14,8.46,9.93,3.63,6.05,4.04,2.3,2.46-.86-6.05-14.52,7.72,12.08,7.72,13.66,2.42,7.26,6.09,8.77,6.88,8.77,2.42,1.21,4.46,6.77,3.67,5.98-2.42-3.63,6.88,5.66,3.72,3.29-3.63-13.31,8.14,16.6,8.93,18.97,4.84,12.1,4.88,4.5,3.3-.24-2.42-21.78,5.72,19.96,7.3,23.91,1.21,15.73,5.3,5.81,5.3,1.07-1.21-24.2q6.51,19.74,0,0Zm-7.68,66.71c13.03-.89,16.19-1.68,14.52-1.21,3.25-1.26,2.46-1.26-6.05,0,9.3-.47,11.67-1.26,10.89-2.42q2.36-.42-2.42,0c5.57-.42,7.15-1.21,7.26-2.42,1.47.42.68-.37-1.21-2.42,3.47,2.84,5.84,2.05,7.26-2.42-.63,2.1.16,2.89,1.21,1.21.53,1.68,2.11.1,7.26-3.63-3.57,3.73-4.36,3.73-2.42,1.21-1.15.94.43-.64,7.26-7.26-6.04,5.83-6.83,6.62-3.63,3.63-1.62,2.2.75.62,10.89-7.26-10.14,7.88-12.51,8.67-9.68,7.26-2.83,3.78-2.83,2.99,3.63-2.42-7.25,6.2-8.83,6.99-6.05,6.05-4.36,4.1-2.78,3.31,2.42,1.21q-5.2,2.89-2.42,2.42c-1.2,1.26.38,1.26,9.68,0-7.72,1.26-8.51,1.26-3.63,0-3.3,3.63-.14,1.26,12.1,1.21-12.24,1.63-15.4-.74-12.1,1.21-4.88.42-3.3.42,4.84,1.21-9.72-1.58-11.3,0-9.68,0-3.2,0-3.2.79,2.42,1.21-6.41-1.21-8.78-1.21-8.47-1.21-1.89,0-1.1,0,1.21,0-3.89,0-5.47.79-6.05,2.42-.21-.05-1,.74-1.21,2.42-1.37-.89-2.95-.1-7.26,4.84,3.52-3.36,3.52-4.15,1.21-2.42,1.52-.15-.85,1.43-8.47,7.26,6.04-5.83,7.62-6.62,4.84-3.63.41-2.2-1.96-.62-13.31,7.26,11.35-7.88,13.72-9.46,12.1-8.47,3.2-2.57,1.62-1.78-4.84,2.42,8.04-4.99,9.62-6.57,8.47-6.05,1.94-2.1,1.15-2.1-3.63,0,4.78-2.1,6.36-2.1,2.42-2.42,1.57-3.63-.8-1.26-9.68-1.21,7.3.74,9.67-3.21,4.84,1.21,1.67-2.05-1.49.32-14.52,1.21q9.87-1.68,0,0Z"/><path class="cls-1" d="m89.79,1.21c15.7,24.69,17.28,29.43,4.84,21.78,14.02,14.76,15.6,15.55,3.63,8.47,9.6,5.5,7.23,1.55-8.47-19.36,15.7,21.7,18.07,27.23,10.89,22.99,9.55,4.24,7.97,1.08-7.26-16.94,15.23,18.81,17.6,22.76,9.68,19.36,10.29,7.35,11.87,7.35,2.42,1.21,7.08,4.56,6.29,1.4-7.26-13.31,14.34,15.5,15.92,19.45,10.89,16.94,6.61,4.09,4.24,2.51-7.26-8.47,12.29,10.98,14.66,14.14,9.68,10.89,8.93,5.62,7.35,4.04,1.21-2.42,5.35,4.88,4.56,3.3-4.84-6.05,11.77,8.56,10.98,14.09,9.68,7.26,6.04,5.25,4.46,2.09-3.63-7.26,8.88,8.56,7.3,11.72,4.84,6.05,4.04,2.51,4.04-.65-2.42-14.52,4.88,13.08,6.46,15.45,3.63,9.68,5.2,3.4,3.62-.55-1.21-18.15,4.04,16.02,6.41,19.18,1.21,12.1,4.41,4.71,3.62.76,1.21-20.57,2.41,19.75,3.2,22.91-1.21,14.52,4.41,6.02,3.62-.3,3.63-25.41-.01,25.11.78,31.43-3.63,25.41,2.83,8.39,5.2,5.23,0-14.52,5.2,21.33,3.62,25.28,1.21,20.57,3.99,6.29,3.99,3.92,0-13.31,3.99,18.02,3.99,22.76,0,19.36,3.2,4.98,3.2,3.4-2.42-9.68,6.41,13.08,4.83,17.82,4.84,12.1,3.15,6.51,3.94,5.72,1.21-1.21,2.73,5.35,2.73,3.77-1.21-7.26,4.73,11.03,3.15,13.4,2.42,8.47,3.1,3.35,3.89.98,3.63-13.31-.53,12.71,1.84,15.08-2.42,8.47,1.89,4.24,2.68,1.08,2.42-16.94,1.05,16.44-.53,19.6-2.42,12.1,3.47,9.08,2.68,7.5,1.21-6.05,2.26,8.81,4.63,6.44,4.84-14.52-1,20.17-2.58,23.33-3.63,15.73,1.84,6.81,4.21,2.86,8.47-20.57-4.26,22.64-5.84,27.38-8.47,19.36,2.63,8.81,2.63,5.65,6.05-14.52-2.63,21.75-4.21,25.7-7.26,20.57.68,6.71,2.26,4.34,2.42-12.1-.16,18.02-.95,21.18-2.42,16.94,2.26,6.61,2.26,3.45,2.42-9.68-.16,14.71-.16,17.08-1.21,13.31,3.42,6.14,2.63,3.77,3.63-7.26-1,11.03-1,13.4-1.21,8.47.21,3.35,3.37,1.77,6.05-12.1-2.68,12.29-4.26,13.87-3.63,8.47.16,3.82,2.53.66,7.26-15.73-4.73,15.6-6.31,17.97-4.84,10.89,1.69,6.29,3.27,2.34,13.31-15.73-8.46,16.49-10.04,18.86-8.47,9.68.01,7.6,3.17,3.65,15.73-15.73-13.35,19.38-15.72,24.12-16.94,16.94-.36,8.76,1.22,5.6,9.68-10.89-10.04,17.28-11.62,21.23-12.1,15.73-.31,7.87,1.27,6.29,7.26-8.47-7.57,13.97-7.57,18.71-9.68,13.31.53,6.19.53,4.61,3.63-7.26-3.89,12.66-6.26,16.61-2.42,13.31-.68,6.46-1.47,2.51,3.63-4.84-3.52,8.14-4.31,8.93-2.42,4.84,1.27,4.88,2.06,1.72,9.68-8.47-6.04,9.4-7.62,10.19-4.84,4.84-4.36,7.72-3.57,7.72,1.21,1.21-.83,4.14,1.54,2.56,13.31-8.47-10.98,10.24-12.56,11.82-9.68,4.84-2.09,6.19.28,3.03,14.52-9.68-14.24,12.71-17.4,15.87-15.73,10.89-2.46,6.56-.88,4.19,9.68-6.05-11.35,11.03-13.72,13.4-13.31,9.68-1.2,6.09-1.2,3.72,6.05-4.84-8.04,10.14-9.62,11.72-9.68,9.68-1.52,3.62-.73,2.83,3.63-2.42-4.36,6.04-5.94,6.83-3.63,4.84-2.31,3.57-1.52,4.36,1.21,1.21-1.15,3.15,1.22,3.15,8.47-1.21-6.46,3.57-8.04,4.36-4.84,1.21-.83,2.36,2.33,1.57,13.31-4.84-10.98,6.41-13.35,7.2-12.1,4.84-3.62,3.15-2.04,2.36,4.84-1.21-8.46,2.78-10.04,5.94-9.68,3.63-1.94,2.31-1.94,1.52,2.42-1.21-5.15,3.52-7.52,4.31-7.26,4.84-1.05,1.05-.26,1.84,1.21,1.21-2.26,1.42-3.05,2.21-3.63,4.84-.21-1.05-1-1.84-1.21-1.21.21.16-.58.16-1.21,2.42,1.42-3.84,4.58-3.84,8.47-4.84-3.89.21-3.1-1.37-1.21-2.42-.31.26,2.06-.53,8.47-3.63-5.62,2.31-6.41,3.1-3.63,1.21-1.2,1.89,1.96,1.89,12.1-1.21-10.14,3.1-13.3,3.1-12.1,1.21-2.78,1.89-1.99,1.89,3.63-1.21-5.62,2.31-7.99,2.31-3.63,2.42-2.78,3.84.38,1.47,8.47,2.42-7.3-.16-8.88,2.21-4.84-1.21-1.67,1.05.7,1.05,13.31,1.21-11.03-.16-12.61-.16-7.26-1.21-3.77,2.63-.61,2.63,14.52,3.63-15.13-.21-18.29-2.58-14.52-2.42-5.35,2.21-2.98.63,8.47,2.42-13.03-1-15.4-1-13.31-2.42-4.46,3-2.09.63,4.84,1.21-7.72,1.79-10.88-1.37-4.84,1.21-5.25,2.16-1.3,1.37,8.47,4.84-9.77-1.89-10.56-2.68-6.05-2.42-3.72,2.11.23,1.32,12.1,8.47-11.87-5.57-13.45-5.57-7.26-4.84-3.82-1.52-1.45,1.64,14.52,9.68-15.18-7.25-16.76-8.83-9.68-7.26-6.29.01-1.55,2.38,15.73,14.52-17.28-12.14-21.23-14.51-15.73-13.31-7.08-1.99-4.71-.41,9.68,8.47-15.18-9.67-18.34-12.04-14.52-10.89-5.4-1.94-4.61.43,8.47,6.05-13.87-6.41-16.24-9.57-13.31-8.47-4.51-1.89-2.93-1.1,6.05,3.63-9.77-4.73-11.35-4.73-7.26-2.42-3.3.06-1.72,3.22,9.68,10.89-10.61-7.67-11.4-10.04-7.26-7.26-3.35-1.2-.98,1.96,12.1,13.31-11.5-10.56-13.87-12.14-7.26-8.47-8.19-4.46-8.19-3.67,0,2.42-5.03-2.93-3.45.23,9.68,15.73-12.34-14.71-15.5-17.08-7.26-13.31-6.66-2.98-3.5.97,9.68,20.57-13.18-18.02-15.55-21.97-7.26-16.94-5.92-4.24-4.34,2.08,10.89,24.2-13.65-21.33-16.81-25.28-7.26-19.36-7.97-4.34-6.39,2.77,8.47,29.04-14.86-26.27-16.44-33.38-8.47-29.04-9.55-5.92-7.97-1.97,6.05,19.36-14.02-22.12-16.39-27.65-9.68-24.2-8.29-5.03-5.92-1.87,7.26,15.73-12.39-19.18-16.34-23.13-10.89-20.57-6.24-4.93-6.24-.98,7.26,12.1-12.71-14.66-15.87-17.82-10.89-15.73-7.35-2.09-4.19-1.3,6.05,9.68-11.82-10.98-12.61-14.93-10.89-12.1-4.09-2.83-4.09-1.25,4.84,7.26-7.35-9.3-9.72-9.3-6.05-6.05-5.25-.88-2.88,2.28,4.84,15.73-6.93-12.66-8.51-14.24-3.63-9.68-3.3-3.77-.93.18,7.26,16.94-8.19-15.97-9.77-18.34-4.84-13.31-6.51-3.45-3.35,1.29,3.63,22.99-6.98-20.12-9.35-23.28-2.42-16.94-3.77-5.55-4.56.77,3.63,25.41-8.19-24.64-7.4-30.96-3.63-25.41-6.93-6.34-5.35-3.18,2.42,16.94-6.98-20.91-9.35-25.65-3.63-21.78-4.14-6.24-4.14-3.08,4.84,12.1-8.98-16.76-10.56-20.71-7.26-18.15-4.09-4.93-3.3-2.56,4.84,9.68-7.35-13.82-10.51-15.4-7.26-13.31-4.83-3.67-3.25-2.09,2.42,7.26-7.25-10.14-8.04-12.51-4.84-12.1-3.2-2.78-2.41-1.99,3.63,3.63-6.04-5.62-6.83-7.2-3.63-4.84q-3.2-3.15,2.42,0c-3.25-1.57-2.46.01,6.05,7.26-7.72-7.25-8.51-8.83-4.84-6.05-2.09-1.2-.51,1.17,10.89,12.1-11.4-10.93-12.98-14.09-10.89-13.31-4.46-1.57-2.09-1.57,6.05,4.84-8.93-7.2-11.3-8.78-9.68-7.26q-3.2-1.52,2.42,2.42c-5.62-3.94-7.2-4.73-4.84-4.84-3.94-3.84-1.57-2.26,4.84,0-5.62-2.26-6.41-2.26-3.63-1.21-.41-1.05,1.17,1.32,10.89,6.05-9.72-3.94-10.51-7.1-9.68-4.84q-3.2-.68,2.42,2.42c-6.41-3.89-7.99-5.47-8.47-4.84q-1.1-.63,2.42,0-3.52-.63-2.42,0c.48-.63,2.06-.63,9.68,1.21-7.62-1.05-9.99-3.42-10.89-2.42-2.26.58-2.26,2.16,0,6.05-4.63-7.05-8.58-3.1-14.52,3.63,3.57-3.57,4.36-4.36,1.21-1.21.78-2.36-.8.01-8.47,7.26,7.67-7.25,10.04-9.62,9.68-7.26,2.73-2.36,1.94-2.36-1.21,2.42,3.94-5.57,7.1-6.36,7.26-1.21,1.42-1.99.63-.41,0,7.26,1.42-6.88,1.42-7.67,1.21-3.63.21-1.67-.58.7-2.42,13.31,2.63-10.24.26-13.4,2.42-7.26.21-3.77,1-.61-2.42,14.52,1.84-14.34,2.63-15.92,2.42-9.68-.58-4.66-2.16-.71-7.26,18.15,5.1-17.28,5.1-20.44,6.05-12.1-.95-9.92.63-7.55-2.42,7.26-.9-10.86-1.69-7.7-7.26,13.31,5.57-21.01,7.15-23.38,7.26-13.31-1.69-8.49-4.85-3.75-14.52,20.57,8.88-25.11,14.41-28.27,13.31-20.57,1.89-9.28-1.27-7.7-7.26,13.31,7.57-21.8,9.94-26.54,9.68-20.57-.53-7.55-1.32-4.39-7.26,13.31,6.73-18.49,7.52-23.23,8.47-18.15,1.42-6.66-.16-5.08-2.42,9.68,3.84-14.76,3.05-18.71,2.42-14.52-.95-5.77-.95-3.4-4.84,8.47,3.89-11.87,3.89-13.45,2.42-8.47-.9-4.19-2.48-.24-9.68,14.52,5.62-14.76,8.78-15.55,6.05-9.68,2.73-4.29-1.22-1.13-10.89,16.94,8.88-17.28,11.25-19.65,9.68-12.1-.01-6.76-2.38-1.23-15.73,18.15,10.98-20.17,14.93-21.75,10.89-13.31.09-8.44-3.86-4.49-21.78,16.94,17.13-19.85,20.29-23.8,18.15-12.1,1.35-10.12-3.39-4.59-24.2,16.94,19.23-21.53,22.39-23.9,16.94-10.89,9.4-16.96,10.19-16.17,3.63-1.21,8.14-17.33,8.93-18.12,3.63-4.84,2.14-11.7-.23-7.75-16.94,12.1,17.5-20.64,22.24-24.59,20.57-16.94,3.25-9.23.09-6.86-12.1,12.1,13.77-18.96,15.35-23.7,15.73-15.73,1.2-9.55-.38-7.18-8.47,9.68,9.67-17.65,11.25-21.6,10.89-15.73,1.15-7.45-.43-5.87-7.26,8.47,7.62-14.34,8.41-17.5,7.26-13.31q2.73-8.14-1.21-1.21c1.57-5.35-.01-3.77-6.05,7.26,7.62-11.82,8.41-14.19,6.05-12.1.78-5.25-.01-3.67-7.26,4.84,8.04-7.72,8.04-10.88,6.05-8.47,1.99-4.78.41-5.57-8.47,1.21,7.3-5.99,11.25-5.99,6.05-6.05,3.62-3.89,1.25-4.68-8.47-1.21,8.93-1.89,10.51-2.68,6.05-2.42,5.25-1.05,5.25-1.84,0-2.42,3.67-1.79,1.3-1.79-8.47-4.84,9.77,2.26,10.56,2.26,6.05,1.21,4.51-1.32,1.35-2.9-10.89-8.47,11.45,4.78,12.24,6.36,7.26,3.63,5.77-.43,1.82-2.8-10.89-13.31,11.92,9.72,14.29,11.3,7.26,8.47,4.66,2.04,2.29-1.12-13.31-14.52,14.81,11.82,17.18,13.4,8.47,9.68,7.13,2.14,5.55-2.6-10.89-19.36,15.65,15.97,17.23,19.13,8.47,14.52,9.55,2.24,6.39-3.29-8.47-25.41,15.65,20.54,15.65,26.07,7.26,19.36,6.81,4.34,6.81-2.77-9.68-29.04q14.91,19.95,0,0Zm53.5,58.13c-7.67-3.89-10.04-4.68-8.47-6.05q-2.36-.21,2.42,0c-4.78-.21-6.36-1-3.63-2.42-1.94-.16-.36-.16,6.05-1.21-5.62,1.05-6.41,1.05-3.63,0-1.99,2.63,1.17,1.05,9.68,2.42-8.51-1.37-11.67.21-9.68-2.42-2.78,1.05-1.99,1.05,3.63,0-5.62,1.05-7.2,1.05-4.84-2.42-3.94.31-1.57.31,3.63-3.63-5.2,3.15-5.2,3.94-2.42,1.21-1.99,1.15.38,1.15,9.68-3.63-9.3,4.78-11.67,4.78-9.68,4.84-2.78,2.31-2.78,1.52,2.42-1.21-5.2,2.73-5.99,3.52-3.63,1.21-3.94,1.52-4.73.73,1.21-6.05-4.36,4.41-4.36,5.2-2.42,1.21-1.15,2.41-.36-.75,8.47-8.47-8.83,7.72-9.62,10.88-8.47,8.47-1.94,3.99-1.94,3.2,2.42-1.21-4.36,5.2-5.94,6.78-6.05,2.42-1.47,2.78-1.47,1.99,0-3.63-1.47,5.62-2.26,5.62-1.21,2.42-1.05,2.41-1.05.04,2.42-8.47-3.47,8.51-3.47,10.88-4.84,8.47q-.21,3.2,0-2.42c-.21,6.41-1,7.2-2.42,6.05q-.16,1.94-2.42-2.42c1.47,3.57,1.47,4.36,0,1.21.68,1.57-.9-.01-4.84-7.26,3.94,7.25,5.52,8.83,4.84,7.26q1.47,3.94-1.21,1.21c1.89,2.73,2.68,3.52,1.21,1.21-.9,4.68-2.48.73-9.68-1.21,5.62,3.52,6.41,3.52,3.63,1.21,1.2.73-1.17-.85-9.68-8.47,9.3,6.04,10.88,8.41,8.47,7.26,3.2,2.73,2.41,1.94-3.63-1.21,6.83,3.94,9.2,4.73,7.26,4.84,2.73,2.26,3.52,3.05-2.42,3.63,5.94-.58,7.52,1,6.05,3.63,1.47-.26.68-.26-1.21,2.42,1.89-1.89,2.68-2.68,1.21-1.21,1.47-1.47,2.26-.68,1.21,1.21,1.05-.31,1.05,2.06-1.21,8.47,1.47-5.62,1.47-6.41,0-3.63.68-1.2-.9.38-6.05,9.68,5.15-9.3,7.52-10.88,6.05-10.89.68-2.36-.11-1.57-2.42,3.63,3.1-5.99,3.89-8.36,4.84-7.26,1.42-1.89,2.21-1.89,2.42,0-.21-1.89-.21-1.1,0,2.42-.21-3.52.58-5.1,2.42-2.42-.26-.31.53,2.06,3.63,8.47-2.31-7.2-3.89-8.78-2.42-9.68-1.47-.68-.68-.68,1.21,2.42-1.89-3.1-2.68-3.89-1.21-3.63-.68-1.84.9-1.84,6.05,0-4.36-1.05-4.36-1.84-2.42-1.21-.36-1.42,1.22,1.74,9.68,4.84q-6.09-2.31,0,0Z"/><path class="cls-1" d="m147.52,3.42c3.88,25.85,4.67,31.38,0,27.83,6.25,5.92,3.88,1.97,0-18.15,5.46,21.7,4.67,27.23,2.42,24.2,4.62,4.61,3.04,1.45-1.21-14.52,5.04,16.76,5.83,21.5,3.63,19.36,2.2,4.51,3.78,1.35-2.42-9.68,4.62,13.4,6.2,16.56,4.84,15.73,2.94,3.99,3.73,3.2,1.21-1.21,1.73,2.83,1.73,2.04-1.21-6.05,2.94,8.09,2.94,8.88,1.21,6.05,2.52.46,2.52-2.7-1.21-16.94,3.73,12.66,2.94,15.03,1.21,10.89,2.52,6.51,4.1,6.51,2.42-1.21,1.68,2.98,2.47-.97,2.42-18.15.05,16.39-1.53,18.76-2.42,13.31,2.47,3.87,2.47-1.66,4.84-22.99-2.37,19.75-1.58,24.49-4.84,16.94,1.68,5.18,3.26-1.14,6.05-26.62-2.79,25.48-4.37,31.01-6.05,26.62,2.47,6.76,3.26,3.6,3.63-16.94-1.16,21.33-1.16,26.86-4.84,22.99,2.1,5.45,2.1,3.08,1.21-13.31.1,17.18.89,21.92-1.21,19.36,2.1,6.51,2.89,6.51,1.21,0,.1,4.93.89,2.56,0-9.68.1,13.03,2.47,16.98,0,15.73,1.68,2.83,1.68,1.25,0-7.26,2.47,10.09,2.47,12.46,2.42,13.31.84,1.52.84.73,0-3.63,1.63,5.94,1.63,8.31,3.63,9.68q-.42-.58,0-2.42c-1.21,2.63-.42,4.21,2.42,7.26q-.47-1.47,2.42,0c-2.1-1.47-2.89-.68-1.21,1.21-.89-.31.69.48,6.05,4.84-4.57-3.57-5.36-3.57-2.42,0-3.73-1.99-1.36-.41,4.84,7.26-5.41-6.09-6.2-6.88-3.63-2.42-3.36-2.88-2.57.28,3.63,10.89-5.41-9.82-5.41-11.4-2.42-4.84-1.41-4.98-1.41-1.82,4.84,12.1-6.25-13.13-5.46-15.5-3.63-7.26-2.62-5.87-1.83-3.5,3.63,14.52-5.46-16.44-7.04-18.81-1.21-10.89-4.25-6.34-3.46-2.39,3.63,18.15-7.88-18.96-6.3-22.91-2.42-13.31-5.46-7.23-4.67-2.49-1.21,21.78-3.46-24.27-4.25-29.01,1.21-21.78-4.67-8.81-4.67-6.44,1.21,13.31-5.09-20.54-6.67-24.49-2.42-18.15-3.46-7.92-3.46-5.55,2.42,10.89-5.09-18.02-7.46-21.18-3.63-15.73-4.62-6.24-3.04-4.66,2.42,8.47-5.46-14.71-7.04-17.87-6.05-9.68-5.73-8.98-3.36-5.82-1.21,6.05-3.73-11.08-3.73-12.66-1.21-4.84-2.52-9.4-3.31-10.19-2.42-1.21-3.26-5.82-2.47-2.66-3.63,12.1,1.16-13.97-.42-16.34,2.42-7.26-1.26-6.71-.47-2.76-1.21,15.73-.05-17.7-.05-20.07,1.21-10.89-2.84-7.6-2.84-3.65-6.05,16.94,1.63-19.8,3.21-22.96,4.84-12.1-3.21-9.28-4-3.75-10.89,19.36,6.89-23.11,7.68-28.64,10.89-19.36-.05-10.07-3.21-7.7-3.63,13.31,2.79-21.01,2.79-25.75,4.84-18.15-2.84-9.18-2.84-6.81-3.63,10.89.79-18.49,1.58-21.65,2.42-15.73-.05-8.29-2.42-6.71-1.21,8.47-1.21-15.97,1.16-18.34,1.21-13.31-.84-6.61-.84-5.82-1.21,6.05-.42-11.08.37-12.66,1.21-4.84-3.21-9.4-.05-11.77-2.42-6.05,0-5.72,0-4.93,0,3.63,0-13.3,0-18.04-8.47-21.78,2.94-.21,3.73.58,1.21,1.21,2.52-1.42,3.31-2.21,1.21-2.42.52-1.37-.27-2.95-4.84-7.26,3.78,3.52,4.57,4.31,2.42,3.63,2.15-1.69.57-4.06-4.84-13.31,6.99,6.88,5.41,10.04,3.63,7.26,2.57-.38.2-3.54-4.84-16.94,5.04,11.82,6.62,14.19,2.42,10.89,1.83,1.72,1.04-2.23-6.05-19.36,7.09,15.55,7.88,17.92,3.63,13.31,5.83,2.24,3.46-2.5,0-24.2,3.46,20.12,5.04,24.07,0,18.15,3.46,4.34,2.67-1.98-1.21-27.83q5.46,19.53,0,0Zm-8.89,84.86c17.18-14.55,21.13-16.13,16.94-10.89,4.98-6.82,3.4-5.24-9.68,7.26,13.08-14.08,16.24-14.87,12.1-10.89,4.93-6.35,2.56-5.56-7.26,4.84,11.4-10.4,12.98-12.77,9.68-8.47,4.09-5.09,3.3-4.3-4.84,3.63,9.72-7.93,10.51-11.09,8.47-8.47,3.62-3.41,2.83-2.62-2.42,3.63,6.04-7.04,8.41-8.62,3.63-8.47,3.2-3.31,2.41-2.52-3.63,1.21,6.83-4.52,8.41-5.31,6.05-6.05,4.73-4,5.52-7.95,1.21-16.94,2.73,5.83,3.52,5.83,1.21,2.42,4.68,1.83,2.31-.54,2.42-10.89,1.47,9.56,1.47,10.35,0,6.05,3.84,3.51,3.84-.44,6.05-13.31-1.42,12.08-1.42,13.66-2.42,7.26.21,4.03,2.58,1.66,7.26-14.52-3.89,14.6-5.47,16.97-6.05,9.68.58,5.71,2.16,1.76,8.47-16.94-6.31,18.7-7.1,23.44-9.68,18.15,1,6.87,1.79,4.5,4.84-9.68-3.05,15.76-4.63,18.92-6.05,14.52,2.21,5.98,2.21,4.4,3.63-7.26-2.21,12.45-2.21,14.82-2.42,10.89,1.79,4.72,1.79,3.14,4.84-7.26-2.26,9.61-3.05,11.19-2.42,6.05.95,3.56,4.11,1.98,9.68-12.1-6.36,11.71-6.36,14.08-6.05,7.26,2.06,6.82,3.64,2.08,14.52-12.1-9.3,14.18-10.88,16.55-9.68,8.47-2.78,9.66-2.78,10.45,3.63-2.42-1.67,8.13,2.28,6.55,15.73-9.68-12.66,16.23-16.61,17.02-13.31,8.47-1.72,6.18,3.81,5.39,21.78-12.1-18.76,17.49-23.5,19.07-22.99,12.1-2.09,8.55.28,6.18,14.52-9.68-14.24,16.65-18.98,19.02-18.15,13.31-1.62,8.87.75,6.5,10.89-7.26-10.93,14.55-14.88,16.92-14.52,12.1-1.15,6.4.43,4.82,7.26-7.26-8.41,12.87-9.99,16.03-12.1,12.1.53,5.51,1.32,3.93,4.84-6.05-4.31,10.77-6.68,13.14-7.26,10.89-.21,3.83-.21,3.04,1.21-3.63-2.21,9.04-4.58,12.2-4.84,15.73,1.05.42,1.84,1.21,1.21,1.21-.16,1.58-2.53,2.37-4.84,7.26,2.31-2.52,3.1-3.31,1.21-1.21,1.89.27,3.47,1.85,1.21,9.68,1.47-6.25,1.47-7.04,0-3.63-.11-1.83-.11,1.33-3.63,12.1,3.52-9.98,3.52-11.56,1.21-7.26.73-2.72.73.44-6.05,13.31,5.99-11.29,6.78-13.66,3.63-7.26.78-4.82-.8-1.66-8.47,14.52,7.67-14.6,8.46-17.76,6.05-9.68,3.99-4.92-.75-2.55-9.68,16.94,9.72-19.49,12.88-22.65,10.89-16.94,1.2-8.08,1.99-4.92-6.05,9.68,7.25-16.18,9.62-19.34,7.26-14.52,1.57-7.19,1.57-4.82-3.63,7.26,5.99-12.87,7.57-16.03,2.42-12.1,2.78-7.09,4.36-3.14-2.42,4.84,5.99-9.56,5.99-11.14,2.42-7.26,1.99-3.88.41-2.3-6.05,7.26,6.46-9.56,8.04-10.35,2.42-6.05,2.46-3.51.88-1.93-9.68,9.68,9.77-10.82,10.56-11.61,6.05-6.05,4.51-3.98,1.35-1.61-12.1,12.1,12.66-12.92,14.24-15.29,9.68-8.47,2.98-6.03-.97-2.87-18.15,10.89q13.23-12.18,0,0Zm6.31-40.56c15.76,9.3,19.71,11.67,16.94,8.47,4.35,3.2,2.77,2.41-9.68-3.63,12.45,6.83,15.61,6.83,12.1,4.84,6.67,3.57,8.25,4.36,2.42-1.21,4.25,3.2,2.67,2.41-6.05-2.42,9.51,5.62,11.88,7.2,10.89,3.63,2.57,2.78,1.78,1.99-3.63-2.42,5.41,4.41,6.99,5.2,4.84,1.21,2.94,3.99,3.73,3.2,1.21-1.21.94,2.83.94,1.25-6.05-6.05,5.41,7.3,6.2,8.09,3.63,3.63.99,3.67-1.38,1.3-10.89-8.47,9.51,8.19,9.51,11.35,7.26,4.84,3.83,2.56-.12.98-8.47-14.52,8.35,15.5,12.3,17.08,8.47,14.52,3.04,4.93,1.46,4.93-6.05-6.05,8.3,10.98,10.67,13.35,10.89,8.47,2.15,4.09,1.36,3.3-3.63-4.84,4.99,9.72,7.36,11.3,8.47,7.26q.47,4.04-2.42-2.42c6.05,8.83,10,12.78,19.36,14.52-4.62.63-5.41-.16-1.21-1.21-4.2,4.21-.25,3.42,7.26,7.26-7.51-2.26-7.51-3.05-3.63-2.42-3.09.16-.72,2.53,9.68,7.26-8.82-5.52-11.98-3.94-4.84-4.84-4.77.9-3.19,4.06,9.68,10.89-10.5-7.62-14.45-7.62-6.05-7.26-6.03.43-2.87,2.8,10.89,14.52-12.97-10.93-15.34-12.51-7.26-9.68-8.08.33-5.71,4.28,8.47,20.57-14.18-16.29-16.55-20.24-9.68-20.57-6.87-2.83-6.08-.46,7.26,9.68-14.13-10.93-15.71-14.88-10.89-14.52-7.98-.36-4.82.43,6.05,7.26-12.45-7.62-14.82-9.99-10.89-10.89-5.51-.68-3.93.9,4.84,4.84-9.56-3.94-10.35-4.73-6.05-4.84-6.67-1.47-7.46-1.47-2.42,1.21-5.04-.31-3.46,1.27,3.63,7.26-7.09-5.2-7.88-6.78-3.63-4.84-5.04.43-2.67,3.59,3.63,14.52-6.3-10.14-7.88-10.93-2.42-8.47-5.46-.88-4.67,3.07,2.42,18.15-5.51-15.08-7.88-19.03-2.42-18.15-4.67-3.25-3.88-1.67,3.63,8.47-7.51-10.93-9.09-13.3-4.84-13.31-5.04-1.57-4.25-.78,2.42,4.84-6.67-7.2-8.25-9.57-7.26-8.47-3.36-1.1-3.36-.31,1.21,3.63-4.57-5.52-6.15-7.1-3.63-9.68-2.52.21-2.52,1,0,1.21-3.31-2.58-6.47-1.79-8.47-1.21.42-.58,1.21-1.37,1.21-2.42-1.58.26-3.16-.53-7.26-2.42q3.31,1.89,2.42,0c.1.31-2.27.31-9.68-3.63,5.83,3.15,7.41,3.94,4.84,1.21.99,1.15-2.17,1.15-12.1-4.84,9.14,4.41,10.72,5.99,7.26,2.42,1.88,3.57-1.28,1.99-14.52-4.84,12.45,5.25,14.03,8.41,9.68,3.63,2.77,3.2-1.18.83-16.94-8.47q12.6,6.93,0,0Z"/></svg>