<?xml version="1.0" encoding="UTF-8"?><svg id="Layer_1" xmlns="http://www.w3.org/2000/svg" viewBox="0 0 237.69 32.3"><defs><style>.cls-1{fill:#fff;}</style></defs><path class="cls-1" d="m22.47,27.69h-2.58c-.6,0-1.06.46-1.06,1.06v2.49c0,.6-.46,1.06-1.06,1.06H5.77c-.6,0-1.06-.46-1.06-1.06v-2.49c0-.6-.46-1.06-1.06-1.06H1.06c-.6,0-1.06-.46-1.06-1.06v-11.72c0-.6.46-1.06,1.06-1.06h2.58c.6,0,1.06-.46,1.06-1.06v-2.49c0-.6.46-1.06,1.06-1.06h10.71v4.61H5.77c-.6,0-1.06.46-1.06,1.06v11.72c0,.6.46,1.06,1.06,1.06h12c.6,0,1.06-.46,1.06-1.06V0h4.71v26.62c0,.6-.46,1.06-1.06,1.06Z"/><path class="cls-1" d="m34.01,18.46h10.71v4.61h-10.71c-.6,0-1.06.46-1.06,1.06v2.49c0,.6.46,1.06,1.06,1.06h12c.6,0,1.06-.46,1.06-1.06v-11.72c0-.6-.46-1.06-1.06-1.06h-17.77v-4.61h17.77c.6,0,1.06.46,1.06,1.06v2.49c0,.6.46,1.06,1.06,1.06h2.58c.6,0,1.06.46,1.06,1.06v11.72c0,.6-.46,1.06-1.06,1.06h-2.58c-.6,0-1.06.46-1.06,1.06v2.49c0,.6-.46,1.06-1.06,1.06h-12c-.6,0-1.06-.46-1.06-1.06v-2.49c0-.6-.46-1.06-1.06-1.06h-2.58c-.6,0-1.06-.46-1.06-1.06v-2.49c0-.6.46-1.06,1.06-1.06h2.58c.6,0,1.06-.46,1.06-1.06v-2.49c0-.6.46-1.06,1.06-1.06Z"/><path class="cls-1" d="m62.25,9.23h12c.6,0,1.06.46,1.06,1.06v2.49c0,.6.46,1.06,1.06,1.06h2.58c.6,0,1.06.46,1.06,1.06v3.55h-4.71v-3.55c0-.6-.46-1.06-1.06-1.06h-12c-.6,0-1.06.46-1.06,1.06v17.4h-4.71V14.9c0-.6.46-1.06,1.06-1.06h2.58c.6,0,1.06-.46,1.06-1.06v-2.49c0-.6.46-1.06,1.06-1.06Z"/><path class="cls-1" d="m85.79,23.07h2.58c.6,0,1.06-.46,1.06-1.06v-2.49c0-.6-.46-1.06-1.06-1.06h-2.58c-.6,0-1.06-.46-1.06-1.06V0h4.71v17.4c0,.6.46,1.06,1.06,1.06h7.29c.6,0,1.06-.46,1.06-1.06v-2.49c0-.6.46-1.06,1.06-1.06h2.58c.6,0,1.06-.46,1.06-1.06v-2.49c0-.6.46-1.06,1.06-1.06h2.58c.6,0,1.06.46,1.06,1.06v2.49c0,.6-.46,1.06-1.06,1.06h-2.58c-.6,0-1.06.46-1.06,1.06v2.49c0,.6-.46,1.06-1.06,1.06h-2.58c-.6,0-1.06.46-1.06,1.06v2.49c0,.6.46,1.06,1.06,1.06h2.58c.6,0,1.06.46,1.06,1.06v2.49c0,.6.46,1.06,1.06,1.06h2.58c.6,0,1.06.46,1.06,1.06v2.49c0,.6-.46,1.06-1.06,1.06h-2.58c-.6,0-1.06-.46-1.06-1.06v-2.49c0-.6-.46-1.06-1.06-1.06h-2.58c-.6,0-1.06-.46-1.06-1.06v-2.49c0-.6-.46-1.06-1.06-1.06h-7.29c-.6,0-1.06.46-1.06,1.06v8.17h-4.71v-8.17c0-.6.46-1.06,1.06-1.06Z"/><path class="cls-1" d="m137.79,32.3h-8.35v-4.61h8.35c.6,0,1.06-.46,1.06-1.06v-11.72c0-.6-.46-1.06-1.06-1.06h-8.35v-4.61h8.35c.6,0,1.06.46,1.06,1.06v2.49c0,.6.46,1.06,1.06,1.06h2.58c.6,0,1.06.46,1.06,1.06v11.72c0,.6.46,1.06,1.06,1.06h8.35v4.61h-8.35c-.6,0-1.06-.46-1.06-1.06v-2.49c0-.6-.46-1.06-1.06-1.06h-2.58c-.6,0-1.06.46-1.06,1.06v2.49c0,.6-.46,1.06-1.06,1.06Zm1.06-29.44c0-.6.46-1.06,1.06-1.06h2.58c.6,0,1.06.46,1.06,1.06v2.49c0,.6-.46,1.06-1.06,1.06h-2.58c-.6,0-1.06-.46-1.06-1.06v-2.49Z"/><path class="cls-1" d="m163.45,9.23h12c.6,0,1.06.46,1.06,1.06v2.49c0,.6.46,1.06,1.06,1.06h2.58c.6,0,1.06.46,1.06,1.06v3.55h-4.71v-3.55c0-.6-.46-1.06-1.06-1.06h-12c-.6,0-1.06.46-1.06,1.06v17.4h-4.71V14.9c0-.6.46-1.06,1.06-1.06h2.58c.6,0,1.06-.46,1.06-1.06v-2.49c0-.6.46-1.06,1.06-1.06Z"/><path class="cls-1" d="m190.63,31.24v-2.49c0-.6-.46-1.06-1.06-1.06h-2.58c-.6,0-1.06-.46-1.06-1.06v-11.72c0-.6.46-1.06,1.06-1.06h2.58c.6,0,1.06-.46,1.06-1.06v-2.49c0-.6.46-1.06,1.06-1.06h12c.6,0,1.06.46,1.06,1.06v2.49c0,.6.46,1.06,1.06,1.06h2.58c.6,0,1.06.46,1.06,1.06v11.72c0,.6-.46,1.06-1.06,1.06h-2.58c-.6,0-1.06.46-1.06,1.06v2.49c0,.6-.46,1.06-1.06,1.06h-12c-.6,0-1.06-.46-1.06-1.06Zm1.06-3.55h12c.6,0,1.06-.46,1.06-1.06v-11.72c0-.6-.46-1.06-1.06-1.06h-12c-.6,0-1.06.46-1.06,1.06v11.72c0,.6.46,1.06,1.06,1.06Z"/><path class="cls-1" d="m219.93,9.23h12c.6,0,1.06.46,1.06,1.06v2.49c0,.6.46,1.06,1.06,1.06h2.58c.6,0,1.06.46,1.06,1.06v17.4h-4.71V14.9c0-.6-.46-1.06-1.06-1.06h-12c-.6,0-1.06.46-1.06,1.06v17.4h-4.71V14.9c0-.6.46-1.06,1.06-1.06h2.58c.6,0,1.06-.46,1.06-1.06v-2.49c0-.6.46-1.06,1.06-1.06Z"/></svg>