<?xml version="1.0" encoding="UTF-8"?><svg id="Layer_1" xmlns="http://www.w3.org/2000/svg" viewBox="0 0 56.47 6.79"><defs><style>.cls-1{fill:#fff;}</style></defs><path class="cls-1" d="m1.54,5.52c-.2-.28-.44-.47-.72-.59-.28-.12-.55-.18-.83-.18v-1.06c.27,0,.55-.06.83-.18.28-.12.52-.31.72-.59s.3-.63.3-1.08h1.09c0,.42-.1.83-.29,1.21s-.47.7-.82.93c-.35.23-.75.35-1.19.35v-.25c.44,0,.84.12,1.19.35.35.23.62.54.82.93s.29.79.29,1.21h-1.09c0-.44-.1-.8-.3-1.08Zm3.19,0c-.2-.28-.44-.47-.72-.59s-.56-.18-.83-.18v-1.06c.28,0,.56-.06.83-.18.28-.12.52-.31.72-.59s.3-.63.3-1.08h1.08c0,.42-.1.83-.29,1.21-.19.39-.46.7-.82.93-.35.23-.75.35-1.19.35v-.25c.44,0,.84.12,1.19.35.35.23.62.54.82.93.19.39.29.79.29,1.21h-1.08c0-.44-.1-.8-.3-1.08Z"/><path class="cls-1" d="m10.06,6.45c-.33-.23-.58-.54-.75-.93-.17-.39-.25-.82-.25-1.29s.08-.9.25-1.28c.17-.38.42-.67.75-.89.33-.21.73-.32,1.21-.32.35,0,.65.08.9.23.25.15.44.37.57.67.13.29.19.64.19,1.05v.66l-.2-.19c0-.34-.06-.62-.17-.84-.11-.22-.26-.38-.45-.48-.19-.1-.39-.15-.62-.15s-.44.05-.62.15c-.19.1-.34.26-.45.49s-.17.53-.17.9c0,.55.12.96.35,1.22.23.26.53.39.89.39.22,0,.43-.06.62-.17.19-.11.34-.3.46-.55.11-.25.17-.57.17-.96l.2-.06v.66c0,.62-.15,1.11-.45,1.48-.3.36-.7.54-1.21.54-.47,0-.87-.11-1.2-.34ZM12.72,0h1.13v6.64h-1.13V0Z"/><path class="cls-1" d="m15.72,6.62c-.24-.11-.43-.27-.57-.48-.14-.21-.21-.46-.21-.75,0-.35.09-.63.27-.84s.42-.38.71-.49c.29-.11.66-.2,1.1-.28l.17-.03c.22-.03.39-.07.5-.1.11-.04.2-.09.26-.17s.07-.2.02-.35c-.04-.16-.14-.27-.3-.34-.16-.07-.35-.1-.58-.1-.3,0-.52.07-.67.2s-.23.31-.25.51l-1.18-.09c0-.23.06-.46.19-.69.13-.23.35-.44.66-.61s.73-.26,1.25-.26c.67,0,1.18.15,1.54.46.35.31.53.79.53,1.44v3h-1.13v-1.22l.09-.1c-.04.26-.13.5-.27.72-.14.22-.32.4-.55.54s-.49.2-.8.2c-.28,0-.54-.06-.78-.17Zm1.67-.94c.19-.11.34-.27.46-.47.12-.21.18-.46.18-.74v-.47l.09-.04c-.03.17-.14.3-.32.4s-.46.18-.84.25c-.28.05-.49.14-.63.26-.14.12-.21.27-.21.44s.06.3.19.4c.13.1.29.15.48.15.21,0,.42-.05.61-.16Z"/><path class="cls-1" d="m20.33,1.9h1.18v1.79l-.15.19c0-.45.06-.82.19-1.12.12-.3.29-.52.5-.65.21-.14.45-.21.71-.21h.63v.95h-.82c-.25,0-.46.06-.61.17s-.27.29-.34.53c-.07.24-.1.56-.1.95v2.13h-1.18V1.9Z"/><path class="cls-1" d="m24.07,0h1.13v6.64h-1.13V0Zm.15,4.61l2.84-2.71h1.36l-3.42,3.4-.78-.68Zm1.22-.72l.84-.68,2.13,3.43h-1.29l-1.69-2.75Z"/><path class="cls-1" d="m31.29.02h1.31v1.12h-1.31V.02Zm.07,1.88h1.18v4.74h-1.18V1.9Z"/><path class="cls-1" d="m33.86,1.9h1.18v1.79l-.15.19c0-.45.06-.82.19-1.12.12-.3.29-.52.5-.65.21-.14.45-.21.71-.21h.63v.95h-.82c-.25,0-.46.06-.61.17s-.27.29-.34.53c-.07.24-.1.56-.1.95v2.13h-1.18V1.9Z"/><path class="cls-1" d="m38.44,6.52c-.36-.18-.66-.46-.88-.84s-.34-.84-.34-1.39.11-1.02.34-1.4c.22-.38.52-.66.88-.85s.75-.29,1.17-.29.81.1,1.17.29.66.47.88.85c.22.38.34.84.34,1.4s-.11,1.01-.33,1.39c-.22.38-.51.66-.88.84-.36.18-.76.27-1.18.27s-.81-.09-1.17-.27Zm2.07-1.09c.21-.28.31-.66.31-1.15s-.1-.89-.31-1.17c-.21-.28-.51-.42-.89-.42s-.69.14-.91.42-.32.67-.32,1.17.11.88.32,1.15.51.41.91.41.68-.14.89-.41Z"/><path class="cls-1" d="m42.99,1.9h1.18v4.74h-1.18V1.9Zm2.83.99c-.15-.13-.34-.19-.57-.19-.32,0-.58.13-.78.4-.2.27-.3.69-.3,1.27l-.18-.49c0-.43.06-.8.19-1.12s.32-.57.58-.74.58-.26.96-.26c.47,0,.83.15,1.1.46s.4.74.4,1.32v3.12h-1.18v-3.02c0-.36-.07-.61-.22-.74Z"/><path class="cls-1" d="m50.64,5.38c.19-.39.46-.7.82-.93.35-.23.75-.35,1.19-.35v.25c-.44,0-.84-.12-1.19-.35-.35-.23-.62-.54-.82-.93s-.29-.79-.29-1.21h1.08c0,.44.1.8.3,1.08s.44.47.72.59c.28.12.56.18.83.18v1.06c-.28,0-.56.06-.83.18s-.52.31-.72.59c-.2.27-.3.63-.3,1.08h-1.08c0-.42.1-.83.29-1.21Zm3.18,0c.2-.39.47-.7.82-.93.35-.23.75-.35,1.19-.35v.25c-.44,0-.84-.12-1.19-.35-.35-.23-.62-.54-.82-.93-.2-.39-.29-.79-.29-1.21h1.09c0,.44.1.8.3,1.08s.44.47.72.59c.28.12.55.18.83.18v1.06c-.27,0-.55.06-.83.18s-.52.31-.72.59c-.2.27-.3.63-.3,1.08h-1.09c0-.42.1-.83.29-1.21Z"/></svg>